<svg width="132" height="169" viewBox="0 0 132 169" fill="none" xmlns="http://www.w3.org/2000/svg">
<rect x="34.1174" y="0.599661" width="99" height="149" rx="5.5" transform="rotate(13 34.1174 0.599661)" fill="#E2E8F0" fill-opacity="0.5" stroke="#F59E0B"/>
<g filter="url(#filter0_d_103_17)">
<path d="M66.9325 119.285C61.9405 119.285 57.8445 118.549 54.6445 117.077C51.5085 115.605 49.0445 113.429 47.2525 110.549C45.4605 107.669 44.2125 104.117 43.5085 99.8933C42.8685 95.6693 42.5485 90.8053 42.5485 85.3013C42.5485 79.6693 42.8685 74.7093 43.5085 70.4213C44.2125 66.1333 45.4605 62.5493 47.2525 59.6693C49.0445 56.7893 51.5085 54.6133 54.6445 53.1413C57.8445 51.6693 61.9405 50.9333 66.9325 50.9333C69.2365 50.9333 71.5085 51.0613 73.7485 51.3173C76.0525 51.5093 78.1965 51.7973 80.1805 52.1813C82.1645 52.5013 83.8605 52.8213 85.2685 53.1413L84.9805 59.5733C83.5725 59.3173 81.8445 59.0613 79.7965 58.8053C77.7485 58.5493 75.6685 58.3253 73.5565 58.1333C71.4445 57.9413 69.5245 57.8453 67.7965 57.8453C64.1485 57.8453 61.1725 58.3893 58.8685 59.4773C56.6285 60.5653 54.9005 62.2613 53.6845 64.5653C52.4685 66.8053 51.6365 69.6533 51.1885 73.1093C50.7405 76.5013 50.5165 80.5653 50.5165 85.3013C50.5165 89.9093 50.7405 93.9413 51.1885 97.3973C51.6365 100.789 52.4365 103.605 53.5885 105.845C54.8045 108.021 56.5645 109.653 58.8685 110.741C61.1725 111.829 64.1805 112.373 67.8925 112.373C70.5805 112.373 73.5245 112.213 76.7245 111.893C79.9885 111.509 82.7405 111.125 84.9805 110.741L85.2685 117.269C83.7325 117.589 81.9405 117.909 79.8925 118.229C77.8445 118.549 75.7005 118.805 73.4605 118.997C71.2205 119.189 69.0445 119.285 66.9325 119.285Z" fill="#F59E0B"/>
</g>
<defs>
<filter id="filter0_d_103_17" x="38.5485" y="50.9333" width="50.72" height="76.352" filterUnits="userSpaceOnUse" color-interpolation-filters="sRGB">
<feFlood flood-opacity="0" result="BackgroundImageFix"/>
<feColorMatrix in="SourceAlpha" type="matrix" values="0 0 0 0 0 0 0 0 0 0 0 0 0 0 0 0 0 0 127 0" result="hardAlpha"/>
<feOffset dy="4"/>
<feGaussianBlur stdDeviation="2"/>
<feComposite in2="hardAlpha" operator="out"/>
<feColorMatrix type="matrix" values="0 0 0 0 0 0 0 0 0 0 0 0 0 0 0 0 0 0 0.25 0"/>
<feBlend mode="normal" in2="BackgroundImageFix" result="effect1_dropShadow_103_17"/>
<feBlend mode="normal" in="SourceGraphic" in2="effect1_dropShadow_103_17" result="shape"/>
</filter>
</defs>
</svg>
